<svg width="512" height="512" viewBox="0 0 512 512" fill="none" xmlns="http://www.w3.org/2000/svg">
  <rect width="512" height="512" rx="128" fill="#081225"/>
  <rect x="64" y="64" width="128" height="128" rx="16" stroke="#5F8DFF" stroke-width="24"/>
  <rect x="96" y="96" width="64" height="64" rx="8" fill="#5F8DFF"/>
  <rect x="320" y="64" width="128" height="128" rx="16" stroke="#5F8DFF" stroke-width="24"/>
  <rect x="352" y="96" width="64" height="64" rx="8" fill="#5F8DFF"/>
  <rect x="64" y="320" width="128" height="128" rx="16" stroke="#5F8DFF" stroke-width="24"/>
  <rect x="96" y="352" width="64" height="64" rx="8" fill="#5F8DFF"/>
  <path d="M256 64V128M256 192V256M256 320V384M256 448V512" stroke="#5F8DFF" stroke-width="24" stroke-linecap="round" opacity="0.3"/>
  <rect x="320" y="320" width="48" height="48" rx="8" fill="#5F8DFF"/>
  <rect x="400" y="320" width="48" height="48" rx="8" fill="#5F8DFF" opacity="0.6"/>
  <rect x="320" y="400" width="48" height="48" rx="8" fill="#5F8DFF" opacity="0.8"/>
  <rect x="400" y="400" width="48" height="48" rx="8" fill="#5F8DFF" opacity="0.4"/>
  <rect x="224" y="224" width="64" height="64" rx="12" fill="#5F8DFF"/>
</svg>
